<svg xmlns="http://www.w3.org/2000/svg" viewBox="-93 0 937 937.5" fill="#124989"><path d="M608.8 363.5L587.8 386.5 683.6 474.4C706.1 495.1 719 524.4 719 555L719 937.5 750.3 937.5 750.3 555C750.2 515.6 733.7 478 704.7 451.3ZM608.8 363.5" class="a"/><path d="M484.6 0L78.4 0C35.3 0.1 0.3 35 0.3 78.1L0.3 859.4C0.3 902.5 35.3 937.4 78.4 937.5L469 937.5 469 909.5C468.9 839.2 489.8 770.3 528.9 711.8 533 705.6 532.2 697.3 526.9 692.1L417.5 582.7C407.4 572.6 402.1 558.7 402.8 544.4 403.5 530.1 410.2 516.8 421.3 507.7 442.6 491.4 472.7 493.8 491.2 513.1L645.5 667.3 667.5 645.2 562.8 540.4 562.8 78.1C562.7 35 527.8 0.1 484.6 0ZM531.5 509.2L513.3 491C483.3 460.3 435.1 457.2 401.4 483.6 383.5 498.2 372.7 519.8 371.6 542.9 370.4 566 379.1 588.4 395.5 604.8L495.9 705.3C458.5 765.6 438.4 835.2 437.9 906.3L78.4 906.3C52.5 906.3 31.5 885.3 31.5 859.4L31.5 812.5 422.1 812.5 422.1 781.3 31.5 781.3 31.5 125 531.5 125ZM531.5 93.8L31.5 93.8 31.5 78.1C31.5 52.2 52.5 31.3 78.4 31.3L484.6 31.3C510.5 31.3 531.5 52.2 531.5 78.1ZM531.5 93.8" class="a"/><path d="M94 281.3L156.5 281.3C173.8 281.3 187.8 267.3 187.8 250L187.8 187.5C187.8 170.2 173.8 156.3 156.5 156.3L94 156.3C76.7 156.3 62.8 170.2 62.8 187.5L62.8 250C62.8 267.3 76.7 281.3 94 281.3ZM94 187.5L156.5 187.5 156.5 250 94 250ZM94 187.5" class="a"/><path d="M250.3 281.3L312.8 281.3C330 281.3 344 267.3 344 250L344 187.5C344 170.2 330 156.3 312.8 156.3L250.3 156.3C233 156.3 219 170.2 219 187.5L219 250C219 267.3 233 281.3 250.3 281.3ZM250.3 187.5L312.8 187.5 312.8 250 250.3 250ZM250.3 187.5" class="a"/><path d="M406.5 281.3L469 281.3C486.3 281.3 500.3 267.3 500.3 250L500.3 187.5C500.3 170.2 486.3 156.3 469 156.3L406.5 156.3C389.2 156.3 375.3 170.2 375.3 187.5L375.3 250C375.3 267.3 389.2 281.3 406.5 281.3ZM406.5 187.5L469 187.5 469 250 406.5 250ZM406.5 187.5" class="a"/><path d="M94 437.5L156.5 437.5C173.8 437.5 187.8 423.5 187.8 406.3L187.8 343.8C187.8 326.5 173.8 312.5 156.5 312.5L94 312.5C76.7 312.5 62.8 326.5 62.8 343.8L62.8 406.3C62.8 423.5 76.7 437.5 94 437.5ZM94 343.8L156.5 343.8 156.5 406.3 94 406.3ZM94 343.8" class="a"/><path d="M94 593.8L156.5 593.8C173.8 593.8 187.8 579.8 187.8 562.5L187.8 500C187.8 482.7 173.8 468.8 156.5 468.8L94 468.8C76.7 468.8 62.8 482.7 62.8 500L62.8 562.5C62.8 579.8 76.7 593.8 94 593.8ZM94 500L156.5 500 156.5 562.5 94 562.5ZM94 500" class="a"/><path d="M250.3 437.5L312.8 437.5C330 437.5 344 423.5 344 406.3L344 343.8C344 326.5 330 312.5 312.8 312.5L250.3 312.5C233 312.5 219 326.5 219 343.8L219 406.3C219 423.5 233 437.5 250.3 437.5ZM250.3 343.8L312.8 343.8 312.8 406.3 250.3 406.3ZM250.3 343.8" class="a"/><path d="M406.5 437.5L469 437.5C486.3 437.5 500.3 423.5 500.3 406.3L500.3 343.8C500.3 326.5 486.3 312.5 469 312.5L406.5 312.5C389.2 312.5 375.3 326.5 375.3 343.8L375.3 406.3C375.3 423.5 389.2 437.5 406.5 437.5ZM406.5 343.8L469 343.8 469 406.3 406.5 406.3ZM406.5 343.8" class="a"/><path d="M250.3 593.8L312.8 593.8C330 593.8 344 579.8 344 562.5L344 500C344 482.7 330 468.8 312.8 468.8L250.3 468.8C233 468.8 219 482.7 219 500L219 562.5C219 579.8 233 593.8 250.3 593.8ZM250.3 500L312.8 500 312.8 562.5 250.3 562.5ZM250.3 500" class="a"/><path d="M94 750L156.5 750C173.8 750 187.8 736 187.8 718.8L187.8 656.3C187.8 639 173.8 625 156.5 625L94 625C76.7 625 62.8 639 62.8 656.3L62.8 718.8C62.8 736 76.7 750 94 750ZM94 656.3L156.5 656.3 156.5 718.8 94 718.8ZM94 656.3" class="a"/><path d="M250.3 750L312.8 750C330 750 344 736 344 718.8L344 656.3C344 639 330 625 312.8 625L250.3 625C233 625 219 639 219 656.3L219 718.8C219 736 233 750 250.3 750ZM250.3 656.3L312.8 656.3 312.8 718.8 250.3 718.8ZM250.3 656.3" class="a"/><path d="M265.9 843.8L297.1 843.8 297.1 875 265.9 875ZM265.9 843.8" class="a"/></svg>