<svg xmlns="http://www.w3.org/2000/svg" viewBox="0 0 512 512" fill="#124989"><path d="M341.3 281.6c-28.2 0-51.2 23-51.2 51.2 0 28.2 23 51.2 51.2 51.2 28.2 0 51.2-23 51.2-51.2C392.5 304.6 369.6 281.6 341.3 281.6zM341.3 366.9c-18.8 0-34.1-15.3-34.1-34.1 0-18.8 15.3-34.1 34.1-34.1 18.8 0 34.1 15.3 34.1 34.1C375.5 351.6 360.2 366.9 341.3 366.9z"/><path d="M358.4 366.9v35.3l-12.3-8.2c-2.9-1.9-6.6-1.9-9.5 0l-12.3 8.2v-35.3H307.2v51.2c0 3.1 1.7 6 4.5 7.5 2.8 1.5 6.1 1.3 8.8-0.4l20.9-13.9 20.9 13.9c1.4 0.9 3.1 1.4 4.7 1.4 1.4 0 2.8-0.3 4-1 2.8-1.5 4.5-4.4 4.5-7.5v-51.2H358.4z"/><rect x="196.3" y="85.3" width="110.9" height="17.1"/><rect x="119.5" y="136.5" width="273.1" height="17.1"/><rect x="119.5" y="187.7" width="187.7" height="17.1"/><rect x="341.3" y="187.7" width="51.2" height="17.1"/><rect x="119.5" y="238.9" width="273.1" height="17.1"/><rect x="119.5" y="290.1" width="102.4" height="17.1"/><rect x="119.5" y="332.8" width="42.7" height="17.1"/><rect x="196.3" y="332.8" width="25.6" height="17.1"/><path d="M469.3 0c-23.5 0-42.7 19.1-42.7 42.7v17.1c0 4.7 3.8 8.5 8.5 8.5h68.3c4.7 0 8.5-3.8 8.5-8.5V42.7C512 19.1 492.9 0 469.3 0zM494.9 51.2h-51.2v-8.5c0-14.1 11.5-25.6 25.6-25.6s25.6 11.5 25.6 25.6V51.2z"/><path d="M469.3 0h-358.4C87.4 0 68.3 19.1 68.3 42.7v409.6h17.1v-409.6c0-14.1 11.5-25.6 25.6-25.6h324.3c-5.4 7.1-8.5 16-8.5 25.6v426.7c0 14.1-11.5 25.6-25.6 25.6H76.8V512h324.3c23.5 0 42.7-19.1 42.7-42.7V42.7c0-14.1 11.5-25.6 25.6-25.6 4.7 0 8.5-3.8 8.5-8.5S474.1 0 469.3 0z"/><path d="M401.1 494.9c-14.1 0-25.6-11.5-25.6-25.6v-17.1c0-4.7-3.8-8.5-8.5-8.5H8.5c-4.7 0-8.5 3.8-8.5 8.5v17.1C0 492.9 19.1 512 42.7 512h358.4c4.7 0 8.5-3.8 8.5-8.5C409.6 498.7 405.8 494.9 401.1 494.9zM42.7 494.9c-14.1 0-25.6-11.5-25.6-25.6V460.8H358.4v8.5c0 9.6 3.2 18.5 8.6 25.6H42.7z"/></svg>